<svg width="24" height="24" viewBox="0 0 24 24" fill="#838080" xmlns="http://www.w3.org/2000/svg">
<g id="heroicons:arrow-down-solid">
<path id="Vector" fill-rule="evenodd" clip-rule="evenodd" d="M11.9999 2.25012C12.1988 2.25012 12.3896 2.32914 12.5302 2.46979C12.6709 2.61044 12.7499 2.80121 12.7499 3.00012V19.1901L18.9699 12.9701C19.0386 12.8964 19.1214 12.8373 19.2134 12.7963C19.3054 12.7553 19.4047 12.7333 19.5054 12.7315C19.6061 12.7298 19.7061 12.7483 19.7995 12.786C19.8929 12.8237 19.9777 12.8799 20.0489 12.9511C20.1202 13.0223 20.1763 13.1071 20.214 13.2005C20.2518 13.2939 20.2703 13.3939 20.2685 13.4946C20.2667 13.5953 20.2447 13.6947 20.2037 13.7867C20.1627 13.8787 20.1036 13.9615 20.0299 14.0301L12.5299 21.5301C12.3893 21.6706 12.1987 21.7495 11.9999 21.7495C11.8012 21.7495 11.6105 21.6706 11.4699 21.5301L3.96991 14.0301C3.89622 13.9615 3.83712 13.8787 3.79613 13.7867C3.75514 13.6947 3.73309 13.5953 3.73132 13.4946C3.72954 13.3939 3.74807 13.2939 3.78579 13.2005C3.82351 13.1071 3.87965 13.0223 3.95087 12.9511C4.02209 12.8799 4.10692 12.8237 4.20031 12.786C4.2937 12.7483 4.39373 12.7298 4.49443 12.7315C4.59513 12.7333 4.69445 12.7553 4.78645 12.7963C4.87845 12.8373 4.96125 12.8964 5.02991 12.9701L11.2499 19.1901V3.00012C11.2499 2.80121 11.3289 2.61044 11.4696 2.46979C11.6102 2.32914 11.801 2.25012 11.9999 2.25012Z" fill="#838080"/>
</g>
</svg>
