<svg width="32" height="33" viewBox="0 0 32 33" fill="none" xmlns="http://www.w3.org/2000/svg">
<g id="ic:outline-phone">
<path id="Vector" d="M8.72 7.6259C8.8 8.81256 9 9.97256 9.32 11.0792L7.72 12.6792C7.17333 11.0792 6.82667 9.3859 6.70667 7.6259H8.72ZM21.8667 23.6526C23 23.9726 24.16 24.1726 25.3333 24.2526V26.2392C23.5733 26.1192 21.88 25.7726 20.2667 25.2392L21.8667 23.6526ZM10 4.95923H5.33333C4.6 4.95923 4 5.55923 4 6.29256C4 18.8126 14.1467 28.9592 26.6667 28.9592C27.4 28.9592 28 28.3592 28 27.6259V22.9726C28 22.2392 27.4 21.6392 26.6667 21.6392C25.0133 21.6392 23.4 21.3726 21.9067 20.8792C21.7743 20.8312 21.6341 20.8086 21.4933 20.8126C21.1467 20.8126 20.8133 20.9459 20.5467 21.1992L17.6133 24.1326C13.8339 22.1997 10.7595 19.1253 8.82667 15.3459L11.76 12.4126C12.1333 12.0392 12.24 11.5192 12.0933 11.0526C11.5875 9.51664 11.331 7.90963 11.3333 6.29256C11.3333 5.55923 10.7333 4.95923 10 4.95923Z" fill="#F2F2F2"/>
</g>
</svg>
