<svg width="86" height="30" viewBox="0 0 86 30" fill="none" xmlns="http://www.w3.org/2000/svg">
<g id="Layer_1" clip-path="url(#clip0_572_902)">
<path id="Vector" d="M21.0215 12.133C21.0215 14.3059 20.1568 15.3931 18.4514 15.3931C16.746 15.3931 15.8813 14.3059 15.8813 12.133C15.8813 9.96004 16.746 8.89427 18.4514 8.89427C20.1568 8.89427 21.0215 9.96004 21.0215 12.133Z" fill="#2A2A2A"/>
<path id="Vector_2" d="M29.4661 14.5128L28.1081 11.4424L24.0538 2.27708C23.4981 1.02012 22.0337 0.453708 20.7834 1.01442L9.38591 6.12213L8.6275 6.4617C7.61534 6.91397 7.05397 7.96548 7.17163 9.01698C7.19998 9.26524 7.26519 9.51349 7.37151 9.75318L12.7839 21.9889C13.341 23.2458 14.8054 23.8122 16.0543 23.2515L28.2116 17.8043C28.2272 17.7971 28.2428 17.79 28.2569 17.7829C29.4747 17.2079 30.0162 15.7555 29.4661 14.5128ZM18.4514 17.7615C15.018 17.7615 12.988 15.4587 12.988 12.133C12.988 8.80725 15.0832 6.5045 18.4514 6.5045C21.8196 6.5045 23.8496 8.72022 23.8496 12.133C23.8496 15.5457 21.7558 17.7615 18.4514 17.7615Z" fill="#2A2A2A"/>
<path id="Vector_3" d="M6.62017 5.96661C6.62017 4.07761 7.11349 3.48124 9.28808 3.48124V0C4.67665 0 2.40424 1.98887 2.40424 5.96661H0V9.01698H2.40424V22.2771H6.62017V9.01698H9.3859V5.96661H6.62017Z" fill="#2A2A2A"/>
<g id="Group">
<path id="Vector_4" d="M41.2832 9.01698V5.96662H32.324V1.558H28.1081V16.1435C28.1081 16.7057 28.1563 17.255 28.2569 17.7829C28.7815 20.555 30.7434 22.7079 34.7283 22.7079C39.3057 22.7079 41.2832 19.6248 41.2832 16.1778V11.5366H37.2969V15.7797C37.2969 17.8014 36.5073 18.9613 34.7935 18.9613C33.0796 18.9613 32.324 17.7686 32.324 15.7127V9.01698H41.2832Z" fill="#2A2A2A"/>
<path id="Vector_5" d="M50.9994 5.53574C45.8606 5.53574 42.6653 8.94992 42.6653 14.1218C42.6653 19.2938 45.7614 22.7079 50.9994 22.7079C56.2374 22.7079 59.2328 19.2938 59.2328 14.1218C59.2328 8.94992 56.0715 5.53574 50.9994 5.53574ZM50.9994 19.094C48.3967 19.094 47.0797 17.4361 47.0797 14.1218C47.0797 10.8075 48.3967 9.18248 50.9994 9.18248C53.6021 9.18248 54.919 10.8075 54.919 14.1218C54.919 17.4361 53.6007 19.094 50.9994 19.094Z" fill="#2A2A2A"/>
<path id="Vector_6" d="M69.6082 5.53574C67.8631 5.53574 66.2159 5.73548 64.7997 7.92267V5.96661H60.7808V22.2771H65.0634V13.7908C65.0634 11.1713 66.3477 9.84591 68.983 9.84591C69.3785 9.84591 69.774 9.87872 70.1681 9.94435V5.53574H69.6082Z" fill="#2A2A2A"/>
<path id="Vector_7" d="M81.6634 5.96661V15.9124C81.6634 17.6687 80.3139 18.9613 78.3704 18.9613C76.5587 18.9613 75.6358 17.9341 75.6358 15.9124V5.96661H71.3547V16.5416C71.3547 20.1213 73.8907 22.4426 77.2831 22.4426C79.2918 22.4426 81.0709 21.5808 81.6634 20.1213V22.7736C81.6634 24.9294 80.2472 26.2876 78.6992 26.2876C76.4594 26.2876 75.3395 25.0949 75.3395 23.1716H71.3547C71.3547 27.3819 73.7589 30 78.5022 30C82.6515 30 85.946 27.3149 85.946 22.7079V5.96661H81.6634Z" fill="#2A2A2A"/>
</g>
</g>
<defs>
<clipPath id="clip0_572_902">
<rect width="85.9459" height="30" fill="white"/>
</clipPath>
</defs>
</svg>
