<svg width="92" height="32" viewBox="0 0 92 32" fill="none" xmlns="http://www.w3.org/2000/svg">
<g id="Layer_1" clip-path="url(#clip0_664_105)">
<path id="Vector" d="M22.5851 12.9418C22.5851 15.2596 21.6627 16.4192 19.8437 16.4192C18.0246 16.4192 17.1022 15.2596 17.1022 12.9418C17.1022 10.624 18.0246 9.48718 19.8437 9.48718C21.6627 9.48718 22.5851 10.624 22.5851 12.9418Z" fill="#F0F0F0"/>
<path id="Vector_2" d="M31.5927 15.4803L30.1441 12.2053L25.8195 2.42892C25.2268 1.08817 23.6648 0.483996 22.3311 1.08208L10.1738 6.53032L9.36481 6.89252C8.28517 7.37495 7.68638 8.49655 7.81188 9.61816C7.84212 9.88296 7.91168 10.1478 8.02509 10.4034L13.7983 23.4548C14.3925 24.7956 15.9545 25.3998 17.2867 24.8017L30.2545 18.9912C30.2711 18.9836 30.2878 18.976 30.3029 18.9684C31.6018 18.3551 32.1794 16.8059 31.5927 15.4803ZM19.8437 18.9456C16.1814 18.9456 14.016 16.4893 14.016 12.9419C14.016 9.39445 16.2509 6.93817 19.8437 6.93817C23.4364 6.93817 25.6018 9.30161 25.6018 12.9419C25.6018 16.5822 23.3684 18.9456 19.8437 18.9456Z" fill="#F0F0F0"/>
<path id="Vector_3" d="M7.22368 6.36439C7.22368 4.34946 7.74989 3.71332 10.0695 3.71332V0C5.15059 0 2.72669 2.12146 2.72669 6.36439H0.16217V9.61811H2.72669V23.7622H7.22368V9.61811H10.1738V6.36439H7.22368Z" fill="#F0F0F0"/>
<g id="Group">
<path id="Vector_4" d="M44.1976 9.61811V6.36439H34.6411V1.66187H30.1441V17.2198C30.1441 17.8194 30.1955 18.4053 30.3029 18.9684C30.8624 21.9253 32.9551 24.2218 37.2056 24.2218C42.0882 24.2218 44.1976 20.9331 44.1976 17.2563V12.3057H39.9455V16.8317C39.9455 18.9882 39.1033 20.2254 37.2752 20.2254C35.447 20.2254 34.6411 18.9532 34.6411 16.7602V9.61811H44.1976Z" fill="#F0F0F0"/>
<path id="Vector_5" d="M54.5615 5.90479C49.0802 5.90479 45.6719 9.54658 45.6719 15.0633C45.6719 20.58 48.9743 24.2218 54.5615 24.2218C60.1487 24.2218 63.3438 20.58 63.3438 15.0633C63.3438 9.54658 59.9718 5.90479 54.5615 5.90479ZM54.5615 20.367C51.7853 20.367 50.3806 18.5986 50.3806 15.0633C50.3806 11.528 51.7853 9.79464 54.5615 9.79464C57.3377 9.79464 58.7425 11.528 58.7425 15.0633C58.7425 18.5986 57.3362 20.367 54.5615 20.367Z" fill="#F0F0F0"/>
<path id="Vector_6" d="M74.4108 5.90479C72.5495 5.90479 70.7924 6.11784 69.2818 8.45084V6.36438H64.995V23.7622H69.5631V14.7102C69.5631 11.9161 70.933 10.5023 73.744 10.5023C74.1659 10.5023 74.5878 10.5373 75.0081 10.6073V5.90479H74.4108Z" fill="#F0F0F0"/>
<path id="Vector_7" d="M87.2698 6.36438V16.9732C87.2698 18.8466 85.8303 20.2254 83.7572 20.2254C81.8247 20.2254 80.8403 19.1297 80.8403 16.9732V6.36438H76.2738V17.6444C76.2738 21.4627 78.9789 23.9387 82.5974 23.9387C84.7401 23.9387 86.6377 23.0195 87.2698 21.4627V24.2918C87.2698 26.5913 85.7592 28.0401 84.108 28.0401C81.7189 28.0401 80.5243 26.7679 80.5243 24.7164H76.2738C76.2738 29.2074 78.8383 32 83.8978 32C88.3237 32 91.8379 29.1359 91.8379 24.2218V6.36438H87.2698Z" fill="#F0F0F0"/>
</g>
</g>
<defs>
<clipPath id="clip0_664_105">
<rect width="91.6757" height="32" fill="white" transform="translate(0.16217)"/>
</clipPath>
</defs>
</svg>
