<svg width="32" height="33" viewBox="0 0 32 33" fill="none" xmlns="http://www.w3.org/2000/svg">
<g id="material-symbols:mail-outline">
<path id="Vector" d="M5.33268 27.6258C4.59935 27.6258 3.97179 27.3649 3.45002 26.8431C2.92824 26.3214 2.6669 25.6934 2.66602 24.9591V8.95915C2.66602 8.22581 2.92735 7.59826 3.45002 7.07648C3.97268 6.5547 4.60024 6.29337 5.33268 6.29248H26.666C27.3993 6.29248 28.0273 6.55381 28.55 7.07648C29.0727 7.59915 29.3336 8.2267 29.3327 8.95915V24.9591C29.3327 25.6925 29.0718 26.3205 28.55 26.8431C28.0282 27.3658 27.4002 27.6267 26.666 27.6258H5.33268ZM15.9993 18.2925L5.33268 11.6258V24.9591H26.666V11.6258L15.9993 18.2925ZM15.9993 15.6258L26.666 8.95915H5.33268L15.9993 15.6258ZM5.33268 11.6258V8.95915V24.9591V11.6258Z" fill="#F2F2F2"/>
</g>
</svg>
