<svg width="32" height="33" viewBox="0 0 32 33" fill="none" xmlns="http://www.w3.org/2000/svg">
<g id="mdi:instagram">
<path id="Vector" d="M10.3993 3.62598H21.5993C25.866 3.62598 29.3327 7.09264 29.3327 11.3593V22.5593C29.3327 24.6103 28.5179 26.5773 27.0676 28.0276C25.6174 29.4779 23.6504 30.2926 21.5993 30.2926H10.3993C6.13268 30.2926 2.66602 26.826 2.66602 22.5593V11.3593C2.66602 9.3083 3.48078 7.3413 4.93106 5.89102C6.38134 4.44074 8.34834 3.62598 10.3993 3.62598ZM10.1327 6.29264C8.85964 6.29264 7.63874 6.79836 6.73857 7.69853C5.8384 8.59871 5.33268 9.8196 5.33268 11.0926V22.826C5.33268 25.4793 7.47935 27.626 10.1327 27.626H21.866C23.1391 27.626 24.36 27.1203 25.2601 26.2201C26.1603 25.3199 26.666 24.099 26.666 22.826V11.0926C26.666 8.43931 24.5193 6.29264 21.866 6.29264H10.1327ZM22.9993 8.29264C23.4414 8.29264 23.8653 8.46824 24.1779 8.7808C24.4904 9.09336 24.666 9.51728 24.666 9.95931C24.666 10.4013 24.4904 10.8253 24.1779 11.1378C23.8653 11.4504 23.4414 11.626 22.9993 11.626C22.5573 11.626 22.1334 11.4504 21.8208 11.1378C21.5083 10.8253 21.3327 10.4013 21.3327 9.95931C21.3327 9.51728 21.5083 9.09336 21.8208 8.7808C22.1334 8.46824 22.5573 8.29264 22.9993 8.29264ZM15.9993 10.2926C17.7675 10.2926 19.4632 10.995 20.7134 12.2453C21.9636 13.4955 22.666 15.1912 22.666 16.9593C22.666 18.7274 21.9636 20.4231 20.7134 21.6734C19.4632 22.9236 17.7675 23.626 15.9993 23.626C14.2312 23.626 12.5355 22.9236 11.2853 21.6734C10.0351 20.4231 9.33268 18.7274 9.33268 16.9593C9.33268 15.1912 10.0351 13.4955 11.2853 12.2453C12.5355 10.995 14.2312 10.2926 15.9993 10.2926ZM15.9993 12.9593C14.9385 12.9593 13.9211 13.3807 13.1709 14.1309C12.4208 14.881 11.9993 15.8984 11.9993 16.9593C11.9993 18.0202 12.4208 19.0376 13.1709 19.7877C13.9211 20.5379 14.9385 20.9593 15.9993 20.9593C17.0602 20.9593 18.0776 20.5379 18.8278 19.7877C19.5779 19.0376 19.9993 18.0202 19.9993 16.9593C19.9993 15.8984 19.5779 14.881 18.8278 14.1309C18.0776 13.3807 17.0602 12.9593 15.9993 12.9593Z" fill="#F2F2F2"/>
</g>
</svg>
